<?xml version="1.0" encoding="UTF-8"?>
<svg viewBox="0 0 231 56" version="1.1" xmlns="http://www.w3.org/2000/svg" xmlns:xlink="http://www.w3.org/1999/xlink">
    <g id="Symbols" stroke="none" stroke-width="1" fill="none" fill-rule="evenodd">
        <g id="desktop/Navigation-MagLogo_final" transform="translate(-56.000000, -20.000000)">
            <g id="logo_swm_desktop" transform="translate(56.669763, 20.902889)">
                <path d="M172.3691,25.9919073 C174.164211,36.2723726 180.884467,45.7418803 191.267474,51.0321745 C201.532308,56.2649451 213.044528,56.1480221 222.364599,51.7049504 L219.685376,45.7381288 C212.260456,49.5365613 202.717794,49.6778692 194.173665,45.3242091 C185.605152,40.9586691 180.103521,33.1179542 178.834251,24.852065 L172.3691,25.9919073 Z M216.157054,45.8475487 C215.13476,46.2195762 214.054317,46.4990658 212.980752,46.74104 L209.345511,33.3743093 L195.377909,26.2576413 L181.86862,30.6488168 C181.435317,29.6240216 181.021398,28.629864 180.723776,27.5713049 L191.076145,22.4179419 C191.877724,21.1593009 192.279764,20.4102437 192.885637,19.0446838 C193.679088,17.2595769 194.044863,16.196641 194.462534,14.2883586 C194.706384,13.1704002 194.873953,12.5320134 194.911468,11.3890448 C194.920847,11.1064289 194.905215,10.9694978 194.913344,10.6649979 C194.919596,10.5155616 194.856445,10.3911356 194.717013,10.3354878 C194.570703,10.2779642 194.417515,10.3267342 194.334356,10.4599138 L192.44108,12.9227987 C192.344165,12.979697 192.279764,13.0009557 192.167218,13.0128356 C191.959633,13.030968 191.85584,12.9346785 191.658259,12.8427659 L189.482367,11.7354368 C189.214132,11.5878763 189.079702,11.3959226 189.031557,11.0951743 C188.99029,10.8363182 189.066571,10.7319004 189.180993,10.4411561 L192.336037,2.81490418 C192.377929,2.57230471 192.407941,2.43662408 192.467966,2.19652563 C192.536119,1.93079167 192.582388,1.78448168 192.674301,1.52500029 L193.359582,0 L193.866039,0.257605625 L194.90334,2.43287254 C196.275152,2.9393302 197.028586,3.36450453 198.167178,4.27987986 C199.279509,5.17462173 199.809726,5.82113681 200.62256,6.99411777 C201.350983,8.0426727 201.739893,8.67855843 202.166943,9.88342746 C202.7947,11.6510272 202.859102,12.784617 202.749682,14.6578851 C202.698411,15.5457492 202.625256,16.0484553 202.423298,16.9125596 L202.947888,17.2276888 L209.411163,7.86134835 L208.28195,5.68545618 L213.489085,5.86990681 C213.613511,5.85114912 213.692919,5.79800233 213.762322,5.69045823 C213.824848,5.5935435 213.840479,5.51413594 213.818595,5.39971402 L213.232105,3.68401054 L217.173721,2.49289715 L218.584299,6.43826485 L216.851089,6.97223379 C216.746046,7.02037853 216.690398,7.0810284 216.64788,7.18919775 C216.601611,7.30799647 216.607239,7.40241018 216.664137,7.51683209 L219.873578,11.6210149 L217.449459,11.9836636 L213.500965,23.2439056 L217.130578,25.0927887 L224.324778,24.6000867 C225.107599,24.5663228 225.772872,24.9446029 226.19492,25.3241335 C226.343731,25.4579384 226.800168,25.9956589 226.91334,26.7866082 L227.288493,30.0854608 C227.397288,30.7282244 227.530468,31.0939993 227.858102,31.6573553 C228.260767,32.3413858 228.492737,32.3901558 229.251173,33.141714 L222.854175,33.7669703 C222.379606,33.7994837 221.267275,33.3949428 220.593873,32.6865273 C220.008008,32.0719003 219.812303,31.4872856 219.654113,30.7207213 L219.434648,28.4597942 C219.436524,28.2916003 219.392131,28.1784289 219.273957,28.0590049 C219.150156,27.9333284 219.030732,27.8858089 218.855035,27.8914362 L218.291054,27.9233243 C218.132864,27.9333284 218.030322,27.9845994 217.925279,28.1040234 C217.795851,28.2515839 217.788973,28.3997696 217.812733,28.5942244 C217.9159,29.4683328 217.840244,29.8703726 217.560129,30.6138024 C217.283766,31.3466029 216.982393,31.7161294 216.437794,32.2794854 C215.888819,32.8478435 215.503661,33.1192047 214.788993,33.4512159 L216.157054,45.8475487 L216.157054,45.8475487 Z" id="Fill-1" fill="#BC242A"></path>
                <path d="M7.18835,42.8866614 C7.18835,43.4502114 7.0876,43.9461614 6.8874,44.3758114 C6.68655,44.8048114 6.4038,45.1642614 6.0372,45.4535114 C5.67125,45.7421114 5.239,45.9592114 4.73915,46.1035114 C4.2393,46.2478114 3.69785,46.3193114 3.11415,46.3193114 C2.76185,46.3193114 2.4258,46.2920114 2.106,46.2367614 C1.78555,46.1808614 1.49955,46.1100114 1.2454,46.0248614 C0.99255,45.9397114 0.7813,45.8532614 0.6123,45.7648614 C0.44395,45.6758114 0.32045,45.5919614 0.2431,45.5146114 C0.16575,45.4366114 0.10595,45.3137614 0.0637,45.1473614 C0.02145,44.9816114 -1.64135372e-12,44.7352614 -1.64135372e-12,44.4089614 C-1.64135372e-12,44.1944614 0.0078,44.0215614 0.02145,43.8922114 C0.03575,43.7628614 0.0572,43.6588614 0.08515,43.5808614 C0.1131,43.5035114 0.14885,43.4515114 0.19045,43.4261614 C0.23205,43.3995114 0.28535,43.3865114 0.34905,43.3865114 C0.42575,43.3865114 0.5408,43.4333114 0.6916,43.5256114 C0.84305,43.6185614 1.0309,43.7199614 1.2571,43.8311114 C1.48135,43.9422614 1.7433,44.0456114 2.04295,44.1424614 C2.34195,44.2386614 2.68125,44.2867614 3.06085,44.2867614 C3.30005,44.2867614 3.5126,44.2607614 3.69915,44.2087614 C3.88635,44.1574114 4.0482,44.0833114 4.1847,43.9864614 C4.3225,43.8909114 4.42585,43.7680614 4.4967,43.6205114 C4.56625,43.4716614 4.602,43.3020114 4.602,43.1089614 C4.602,42.8866614 4.537,42.6962114 4.40635,42.5376114 C4.27635,42.3777114 4.1041,42.2392614 3.8896,42.1203114 C3.6751,42.0020114 3.432,41.8915114 3.16095,41.7875114 C2.89055,41.6828614 2.613,41.5691114 2.32765,41.4430114 C2.04295,41.3169114 1.76475,41.1726114 1.49435,41.0094614 C1.22265,40.8463114 0.9802,40.6474114 0.7657,40.4095114 C0.5512,40.1722614 0.3783,39.8875614 0.24895,39.5541114 C0.1183,39.2206614 0.0533,38.8209114 0.0533,38.3542114 C0.0533,37.8810114 0.14105,37.4455114 0.3172,37.0490114 C0.4927,36.6531614 0.7462,36.3145114 1.0764,36.0324114 C1.4079,35.7509614 1.81025,35.5319114 2.2854,35.3772114 C2.7599,35.2212114 3.2929,35.1438614 3.88505,35.1438614 C4.18015,35.1438614 4.46615,35.1659614 4.74435,35.2101614 C5.02255,35.2550114 5.27345,35.3102614 5.499,35.3772114 C5.72455,35.4435114 5.91435,35.5156614 6.06905,35.5936614 C6.2231,35.6716614 6.33425,35.7379614 6.4012,35.7938614 C6.46815,35.8497614 6.51495,35.9050114 6.54355,35.9602614 C6.57215,36.0161614 6.59295,36.0824614 6.60725,36.1604614 C6.62155,36.2378114 6.63325,36.3346614 6.6443,36.4490614 C6.6547,36.5641114 6.6599,36.7064614 6.6599,36.8767614 C6.6599,37.0776114 6.6547,37.2394614 6.6443,37.3655614 C6.63325,37.4916614 6.6157,37.5911114 6.59165,37.6658614 C6.56695,37.7399614 6.53315,37.7893614 6.4909,37.8153614 C6.4493,37.8413614 6.3999,37.8543614 6.34335,37.8543614 C6.2803,37.8543614 6.1815,37.8153614 6.04825,37.7373614 C5.91435,37.6600114 5.7473,37.5768114 5.54645,37.4877614 C5.34625,37.3993614 5.11355,37.3161614 4.84965,37.2381614 C4.5864,37.1595114 4.28545,37.1218114 3.94745,37.1218114 C3.70825,37.1218114 3.5009,37.1471614 3.32475,37.1991614 C3.14925,37.2511614 3.00495,37.3246114 2.89185,37.4214614 C2.7794,37.5176614 2.6949,37.6307614 2.63965,37.7601114 C2.58245,37.8894614 2.5545,38.0279114 2.5545,38.1767614 C2.5545,38.4062114 2.62145,38.5986114 2.7547,38.7546114 C2.88795,38.9099614 3.06475,39.0471114 3.28315,39.1654114 C3.5009,39.2837114 3.7492,39.3955114 4.02675,39.4982114 C4.30495,39.6022114 4.5864,39.7153114 4.8711,39.8375114 C5.15645,39.9597114 5.43725,40.1027114 5.71545,40.2652114 C5.99365,40.4283614 6.2413,40.6279114 6.4597,40.8658114 C6.67745,41.1024114 6.8536,41.3851614 6.9875,41.7147114 C7.12075,42.0449114 7.18835,42.4355614 7.18835,42.8866614" id="Fill-3" fill="#BC242A"></path>
                <path d="M16.32735,40.7871614 C16.32735,40.3653114 16.2968,39.9597114 16.237,39.5703614 C16.17785,39.1823114 16.07515,38.8358614 15.9315,38.5323114 C15.78655,38.2287614 15.5974,37.9863114 15.36145,37.8049614 C15.1255,37.6229614 14.8317,37.5326114 14.48005,37.5326114 C14.3039,37.5326114 14.1297,37.5599114 13.95745,37.6158114 C13.7852,37.6717114 13.60905,37.7614114 13.4303,37.8881614 C13.2509,38.0142614 13.0663,38.1767614 12.87585,38.3763114 C12.68605,38.5765114 12.48585,38.8248114 12.2746,39.1212114 L12.2746,42.3868114 C12.64705,42.8834114 13.0026,43.2662614 13.33995,43.5366614 C13.67795,43.8070614 14.0296,43.9422614 14.3949,43.9422614 C14.7407,43.9422614 15.03385,43.8499614 15.27695,43.6647114 C15.52005,43.4794614 15.7183,43.2370114 15.873,42.9373614 C16.0277,42.6370614 16.1421,42.2984114 16.2162,41.9207614 C16.2903,41.5431114 16.32735,41.1654614 16.32735,40.7871614 Z M19.09245,40.5876114 C19.09245,41.4683614 19.0021,42.2633114 18.82335,42.9705114 C18.64395,43.6777114 18.38135,44.2796114 18.03685,44.7755614 C17.69235,45.2721614 17.26335,45.6530614 16.7492,45.9195614 C16.2357,46.1860614 15.6481,46.3193114 14.98705,46.3193114 C14.71275,46.3193114 14.46055,46.2920114 14.2324,46.2367614 C14.00295,46.1808614 13.78195,46.0957114 13.56745,45.9806614 C13.35295,45.8662614 13.13975,45.7239114 12.92915,45.5529614 C12.71725,45.3826614 12.4995,45.1831114 12.2746,44.9536614 L12.2746,49.6187114 C12.2746,49.6934614 12.2538,49.7597614 12.2109,49.8195614 C12.16865,49.8787114 12.0965,49.9287614 11.99445,49.9690614 C11.89305,50.0100114 11.7572,50.0418614 11.5882,50.0633114 C11.4192,50.0860614 11.2047,50.0971114 10.9447,50.0971114 C10.68405,50.0971114 10.46955,50.0860614 10.3012,50.0633114 C10.1322,50.0418614 9.99635,50.0100114 9.89495,49.9690614 C9.7916,49.9287614 9.7201,49.8787114 9.67785,49.8195614 C9.6356,49.7597614 9.6148,49.6934614 9.6148,49.6187114 L9.6148,35.7769614 C9.6148,35.7028614 9.6317,35.6385114 9.66745,35.5832614 C9.7032,35.5273614 9.76365,35.4805614 9.85205,35.4435114 C9.94045,35.4064614 10.05615,35.3785114 10.20045,35.3609614 C10.34475,35.3414614 10.52545,35.3330114 10.74385,35.3330114 C10.95445,35.3330114 11.13255,35.3414614 11.2775,35.3609614 C11.4205,35.3785114 11.5375,35.4064614 11.62525,35.4435114 C11.713,35.4805614 11.77475,35.5273614 11.80985,35.5832614 C11.84495,35.6385114 11.8625,35.7028614 11.8625,35.7769614 L11.8625,36.9430614 C12.1368,36.6466614 12.4059,36.3866614 12.6698,36.1604614 C12.9337,35.9349114 13.2028,35.7457614 13.4771,35.5936614 C13.7514,35.4422114 14.0348,35.3291114 14.32665,35.2550114 C14.6185,35.1802614 14.9305,35.1438614 15.26135,35.1438614 C15.95035,35.1438614 16.53795,35.2868614 17.02285,35.5715614 C17.50905,35.8562614 17.9049,36.2469114 18.21105,36.7435114 C18.5172,37.2394614 18.74015,37.8173114 18.8812,38.4764114 C19.0216,39.1355114 19.09245,39.8394614 19.09245,40.5876114 L19.09245,40.5876114 Z" id="Fill-4" fill="#BC242A"></path>
                <path d="M24.30545,45.6868614 C24.30545,45.7609614 24.284,45.8253114 24.24175,45.8805614 C24.1995,45.9358114 24.12735,45.9832614 24.02595,46.0196614 C23.9239,46.0567114 23.7887,46.0846614 23.6197,46.1035114 C23.4507,46.1217114 23.2362,46.1308114 22.9762,46.1308114 C22.7149,46.1308114 22.5004,46.1217114 22.3314,46.1035114 C22.16305,46.0846614 22.02785,46.0567114 21.92515,46.0196614 C21.8231,45.9832614 21.75095,45.9358114 21.7087,45.8805614 C21.6671,45.8253114 21.64565,45.7609614 21.64565,45.6868614 L21.64565,35.7990614 C21.64565,35.7249614 21.6671,35.6606114 21.7087,35.6047114 C21.75095,35.5494614 21.8231,35.5013614 21.92515,35.4604114 C22.02785,35.4201114 22.16305,35.3882614 22.3314,35.3661614 C22.5004,35.3434114 22.7149,35.3330114 22.9762,35.3330114 C23.2362,35.3330114 23.4507,35.3434114 23.6197,35.3661614 C23.7887,35.3882614 23.9239,35.4201114 24.02595,35.4604114 C24.12735,35.5013614 24.1995,35.5494614 24.24175,35.6047114 C24.284,35.6606114 24.30545,35.7249614 24.30545,35.7990614 L24.30545,45.6868614 Z M24.50565,32.4216614 C24.50565,32.9852114 24.39645,33.3739114 24.1787,33.5884114 C23.9603,33.8029114 23.556,33.9108114 22.9645,33.9108114 C22.3665,33.9108114 21.96415,33.8068114 21.7568,33.6001114 C21.5488,33.3921114 21.4448,33.0183614 21.4448,32.4775614 C21.4448,31.9146614 21.5527,31.5240114 21.7672,31.3056114 C21.9817,31.0872114 22.38795,30.9780114 22.98595,30.9780114 C23.5768,30.9780114 23.9785,31.0833114 24.18975,31.2945614 C24.40035,31.5051614 24.50565,31.8808614 24.50565,32.4216614 L24.50565,32.4216614 Z" id="Fill-6" fill="#C80000"></path>
                <path d="M33.50815,39.6431614 C33.52895,38.8586114 33.3801,38.2411114 33.059,37.7932614 C32.73855,37.3454114 32.24455,37.1218114 31.57635,37.1218114 C31.239,37.1218114 30.94455,37.1874614 30.6956,37.3207114 C30.446,37.4546114 30.238,37.6346614 30.0729,37.8602114 C29.9078,38.0857614 29.7804,38.3522614 29.6933,38.6597114 C29.60425,38.9678114 29.55355,39.2954114 29.53925,39.6431614 L33.50815,39.6431614 Z M36.0828,40.4426614 C36.0828,40.7839114 36.01065,41.0354614 35.867,41.1979614 C35.72205,41.3611114 35.5238,41.4430114 35.2703,41.4430114 L29.53925,41.4430114 C29.53925,41.8648614 29.58735,42.2483614 29.6816,42.5928614 C29.77715,42.9373614 29.92795,43.2292114 30.13595,43.4703614 C30.3433,43.7108614 30.6111,43.8948114 30.93805,44.0202614 C31.265,44.1457114 31.65695,44.2087614 32.11455,44.2087614 C32.57865,44.2087614 32.9875,44.1736614 33.33915,44.1034614 C33.6908,44.0332614 33.995,43.9552614 34.25175,43.8707614 C34.5085,43.7856114 34.7217,43.7076114 34.8907,43.6367614 C35.05905,43.5665614 35.1962,43.5314614 35.30215,43.5314614 C35.3652,43.5314614 35.41785,43.5444614 35.46075,43.5704614 C35.50235,43.5964614 35.5381,43.6419614 35.56605,43.7095614 C35.594,43.7752114 35.6135,43.8707614 35.62455,43.9923114 C35.6343,44.1145114 35.6395,44.2685614 35.6395,44.4531614 C35.6395,44.6163114 35.6356,44.7554114 35.6291,44.8698114 C35.62195,44.9848614 35.61155,45.0830114 35.5979,45.1642614 C35.5836,45.2461614 35.56215,45.3137614 35.5342,45.3696614 C35.50625,45.4255614 35.4692,45.4788614 35.4237,45.5308614 C35.3782,45.5828614 35.2521,45.6530614 35.04865,45.7421114 C34.84455,45.8305114 34.58455,45.9182614 34.268,46.0034114 C33.9508,46.0885614 33.58875,46.1620114 33.18055,46.2257114 C32.773,46.2881114 32.3362,46.3193114 31.87145,46.3193114 C31.0349,46.3193114 30.30105,46.2088114 29.6712,45.9865114 C29.042,45.7648614 28.51615,45.4268614 28.09365,44.9757614 C27.6718,44.5240114 27.35655,43.9533114 27.1492,43.2649614 C26.94185,42.5753114 26.83785,41.7686614 26.83785,40.8424114 C26.83785,39.9616614 26.94705,39.1667114 27.16545,38.4595114 C27.38255,37.7529614 27.69975,37.1530114 28.1151,36.6603114 C28.53045,36.1676114 29.03485,35.7919114 29.6296,35.5319114 C30.2237,35.2732114 30.89385,35.1438614 31.64005,35.1438614 C32.42785,35.1438614 33.1019,35.2654114 33.6609,35.5104614 C34.2199,35.7542114 34.6801,36.0935114 35.0376,36.5270614 C35.39705,36.9606114 35.66095,37.4734614 35.82995,38.0656114 C35.99895,38.6577614 36.0828,39.3025614 36.0828,39.9987114 L36.0828,40.4426614 L36.0828,40.4426614 Z" id="Fill-7" fill="#C80000"></path>
                <path d="M41.36015,45.6868614 C41.36015,45.7609614 41.3387,45.8253114 41.29645,45.8805614 C41.2542,45.9358114 41.18205,45.9832614 41.07935,46.0196614 C40.97795,46.0567114 40.8421,46.0846614 40.6731,46.1035114 C40.5041,46.1217114 40.2896,46.1308114 40.0296,46.1308114 C39.7696,46.1308114 39.5551,46.1217114 39.3861,46.1035114 C39.2171,46.0846614 39.08125,46.0567114 38.97985,46.0196614 C38.8778,45.9832614 38.80565,45.9358114 38.7634,45.8805614 C38.7205,45.8253114 38.70035,45.7609614 38.70035,45.6868614 L38.70035,29.9705114 C38.70035,29.8964114 38.7205,29.8294614 38.7634,29.7696614 C38.80565,29.7105114 38.8778,29.6604614 38.97985,29.6201614 C39.08125,29.5792114 39.2171,29.5473614 39.3861,29.5259114 C39.5551,29.5031614 39.7696,29.4921114 40.0296,29.4921114 C40.2896,29.4921114 40.5041,29.5031614 40.6731,29.5259114 C40.8421,29.5473614 40.97795,29.5792114 41.07935,29.6201614 C41.18205,29.6604614 41.2542,29.7105114 41.29645,29.7696614 C41.3387,29.8294614 41.36015,29.8964114 41.36015,29.9705114 L41.36015,45.6868614" id="Fill-8" fill="#C80000"></path>
                <path d="M58.84645,35.7542114 C58.84645,35.8361114 58.8367,35.9362114 58.8146,36.0545114 C58.79445,36.1734614 58.75545,36.3431114 58.69955,36.5654114 L56.18665,45.5308614 C56.1522,45.6569614 56.10605,45.7583614 56.0495,45.8363614 C55.99425,45.9143614 55.9078,45.9754614 55.79145,46.0196614 C55.6751,46.0645114 55.51,46.0937614 55.2955,46.1087114 C55.081,46.1236614 54.8015,46.1308114 54.45635,46.1308114 C54.1112,46.1308114 53.8304,46.1217114 53.612,46.1035114 C53.39425,46.0846614 53.2233,46.0528114 53.10045,46.0086114 C52.9776,45.9637614 52.88725,45.9033114 52.83135,45.8253114 C52.77415,45.7473114 52.73255,45.6491614 52.7046,45.5308614 L51.1212,39.5099114 L51.09975,39.4091614 L51.0796,39.5099114 L49.62295,45.5308614 C49.59435,45.6569614 49.55405,45.7583614 49.5014,45.8363614 C49.4481,45.9143614 49.35905,45.9754614 49.2323,46.0196614 C49.10555,46.0645114 48.93265,46.0937614 48.7149,46.1087114 C48.49715,46.1236614 48.2157,46.1308114 47.87055,46.1308114 C47.51825,46.1308114 47.2355,46.1217114 47.021,46.1035114 C46.8065,46.0846614 46.6375,46.0528114 46.51465,46.0086114 C46.39115,45.9637614 46.30145,45.9033114 46.2449,45.8253114 C46.18965,45.7473114 46.14675,45.6491614 46.1188,45.5308614 L43.628,36.5654114 C43.56495,36.3509114 43.52465,36.1819114 43.5071,36.0603614 C43.4889,35.9381614 43.48045,35.8361114 43.48045,35.7542114 C43.48045,35.6807614 43.49995,35.6157614 43.5383,35.5598614 C43.57665,35.5046114 43.6475,35.4604114 43.74955,35.4266114 C43.8516,35.3941114 43.98875,35.3694114 44.161,35.3544614 C44.33325,35.3408114 44.5497,35.3330114 44.81035,35.3330114 C45.09115,35.3330114 45.3206,35.3408114 45.4961,35.3544614 C45.67225,35.3694114 45.8094,35.3954114 45.90755,35.4324614 C46.00635,35.4701614 46.07525,35.5195614 46.11295,35.5832614 C46.1526,35.6450114 46.1825,35.7210614 46.2033,35.8101114 L48.0714,43.0875114 L48.0922,43.2207614 L48.11365,43.0875114 L49.86605,35.8101114 C49.8862,35.7210614 49.92,35.6450114 49.96615,35.5832614 C50.01165,35.5195614 50.08055,35.4701614 50.17155,35.4324614 C50.2632,35.3954114 50.39125,35.3694114 50.55635,35.3544614 C50.7221,35.3408114 50.93465,35.3330114 51.1953,35.3330114 C51.4553,35.3330114 51.66655,35.3414614 51.8284,35.3609614 C51.99025,35.3785114 52.11895,35.4051614 52.21385,35.4383114 C52.30875,35.4714614 52.3757,35.5156614 52.41405,35.5715614 C52.45305,35.6274614 52.48295,35.6924614 52.50375,35.7659114 L54.3829,43.0979114 L54.41475,43.2207614 L54.4349,43.0875114 L56.22955,35.8101114 C56.24385,35.7210614 56.2718,35.6450114 56.31405,35.5832614 C56.35565,35.5195614 56.42715,35.4701614 56.52465,35.4324614 C56.62345,35.3954114 56.7567,35.3694114 56.9257,35.3544614 C57.0947,35.3408114 57.3092,35.3330114 57.56985,35.3330114 C57.82985,35.3330114 58.04305,35.3408114 58.20815,35.3544614 C58.3739,35.3694114 58.5039,35.3941114 58.5988,35.4266114 C58.69435,35.4604114 58.7587,35.5046114 58.79445,35.5598614 C58.82955,35.6157614 58.84645,35.6807614 58.84645,35.7542114" id="Fill-9" fill="#C80000"></path>
                <path d="M66.16025,41.4761614 L65.14755,41.4761614 C64.7179,41.4761614 64.35195,41.5093114 64.04905,41.5762614 C63.7468,41.6425614 63.50045,41.7426614 63.31,41.8759114 C63.12085,42.0091614 62.98175,42.1703614 62.894,42.3588614 C62.8056,42.5480114 62.76205,42.7644614 62.76205,43.0088614 C62.76205,43.4235614 62.8862,43.7498614 63.13645,43.9864614 C63.3867,44.2243614 63.73315,44.3426614 64.1758,44.3426614 C64.54955,44.3426614 64.8921,44.2425614 65.20475,44.0417114 C65.51805,43.8428114 65.83655,43.5496614 66.16025,43.1648614 L66.16025,41.4761614 Z M68.76675,45.7200114 C68.76675,45.8240114 68.73165,45.9052614 68.66145,45.9637614 C68.59125,46.0235614 68.48075,46.0658114 68.32865,46.0924614 C68.17785,46.1178114 67.95425,46.1308114 67.65915,46.1308114 C67.3426,46.1308114 67.11185,46.1178114 66.96755,46.0924614 C66.82325,46.0658114 66.7212,46.0235614 66.66205,45.9637614 C66.60225,45.9052614 66.5717,45.8240114 66.5717,45.7200114 L66.5717,44.9309114 C66.1843,45.3683614 65.7436,45.7089614 65.24765,45.9533614 C64.75105,46.1977614 64.2005,46.3193114 63.596,46.3193114 C63.0955,46.3193114 62.6366,46.2510614 62.21865,46.1145614 C61.7994,45.9774114 61.438,45.7733114 61.13185,45.5029114 C60.82505,45.2325114 60.5878,44.8977614 60.4188,44.4973614 C60.2498,44.0976114 60.1653,43.6309114 60.1653,43.0979114 C60.1653,42.5200614 60.2732,42.0182614 60.4877,41.5931614 C60.7022,41.1667614 61.02265,40.8144614 61.44775,40.5375614 C61.87285,40.2600114 62.40325,40.0546114 63.03635,39.9207114 C63.66945,39.7874614 64.4046,39.7205114 65.24245,39.7205114 L66.16025,39.7205114 L66.16025,39.1212114 C66.16025,38.8098614 66.1297,38.5375114 66.0699,38.3041614 C66.01075,38.0714614 65.91195,37.8771114 65.7748,37.7211114 C65.63765,37.5657614 65.45435,37.4507114 65.2262,37.3766114 C64.9974,37.3031614 64.71465,37.2654614 64.37665,37.2654614 C63.93335,37.2654614 63.5375,37.3174614 63.18975,37.4214614 C62.84135,37.5254614 62.53325,37.6398614 62.26545,37.7653114 C61.99895,37.8914114 61.77535,38.0064614 61.59595,38.1098114 C61.4159,38.2131614 61.2703,38.2658114 61.15785,38.2658114 C61.0805,38.2658114 61.01095,38.2398114 60.95115,38.1878114 C60.892,38.1358114 60.8426,38.0617114 60.80425,37.9661614 C60.76525,37.8693114 60.73535,37.7510114 60.7139,37.6106114 C60.69375,37.4695614 60.68205,37.3142114 60.68205,37.1432614 C60.68205,36.9131614 60.70025,36.7318114 60.73535,36.5985614 C60.77045,36.4653114 60.8374,36.3450614 60.9362,36.2378114 C61.03435,36.1305614 61.2066,36.0122614 61.45295,35.8829114 C61.6993,35.7529114 61.98725,35.6326614 62.31875,35.5215114 C62.64895,35.4103614 63.0097,35.3200114 63.40035,35.2491614 C63.791,35.1796114 64.194,35.1438614 64.6087,35.1438614 C65.34775,35.1438614 65.9789,35.2199114 66.50345,35.3713614 C67.02735,35.5234614 67.4583,35.7568114 67.7963,36.0720614 C68.13365,36.3866614 68.38,36.7916114 68.5347,37.2882114 C68.6894,37.7841614 68.76675,38.3730614 68.76675,39.0536114 L68.76675,45.7200114 L68.76675,45.7200114 Z" id="Fill-10" fill="#C80000"></path>
                <path d="M77.896,36.6986614 C77.896,36.9658114 77.8882,37.1835614 77.87455,37.3545114 C77.86025,37.5254614 77.83945,37.6587114 77.8115,37.7542614 C77.7829,37.8504614 77.74585,37.9174114 77.70035,37.9544614 C77.65485,37.9915114 77.59635,38.0103614 77.52615,38.0103614 C77.47025,38.0103614 77.4072,37.9967114 77.33635,37.9707114 C77.26615,37.9453614 77.18685,37.9174114 77.09845,37.8881614 C77.01135,37.8582614 76.9145,37.8303114 76.8092,37.8049614 C76.70325,37.7789614 76.5869,37.7653114 76.46015,37.7653114 C76.3126,37.7653114 76.16505,37.7971614 76.01685,37.8602114 C75.86995,37.9226114 75.7159,38.0214114 75.55795,38.1546614 C75.4,38.2879114 75.23425,38.4653614 75.062,38.6876614 C74.88975,38.9099614 74.70515,39.1842614 74.5082,39.5099114 L74.5082,45.6868614 C74.5082,45.7609614 74.4874,45.8253114 74.4445,45.8805614 C74.40225,45.9358114 74.33075,45.9832614 74.22805,46.0196614 C74.12665,46.0567114 73.9908,46.0846614 73.8218,46.1035114 C73.65345,46.1217114 73.4383,46.1308114 73.1783,46.1308114 C72.9183,46.1308114 72.7038,46.1217114 72.5348,46.1035114 C72.3658,46.0846614 72.22995,46.0567114 72.12855,46.0196614 C72.02585,45.9832614 71.9537,45.9358114 71.91145,45.8805614 C71.8692,45.8253114 71.8484,45.7609614 71.8484,45.6868614 L71.8484,35.7769614 C71.8484,35.7028614 71.86595,35.6385114 71.90105,35.5832614 C71.9368,35.5273614 71.99985,35.4805614 72.0915,35.4435114 C72.18315,35.4064614 72.30015,35.3785114 72.44445,35.3609614 C72.5894,35.3414614 72.7701,35.3330114 72.98785,35.3330114 C73.2134,35.3330114 73.39995,35.3414614 73.5475,35.3609614 C73.69505,35.3785114 73.80945,35.4064614 73.8907,35.4435114 C73.97195,35.4805614 74.0298,35.5273614 74.06425,35.5832614 C74.1,35.6385114 74.11755,35.7028614 74.11755,35.7769614 L74.11755,37.0100114 C74.3639,36.6401614 74.5966,36.3346614 74.81435,36.0935114 C75.0321,35.8536614 75.2401,35.6625614 75.43705,35.5215114 C75.63335,35.3811114 75.8303,35.2829614 76.0279,35.2270614 C76.22485,35.1718114 76.4218,35.1438614 76.61875,35.1438614 C76.7104,35.1438614 76.8092,35.1490614 76.9145,35.1601114 C77.0198,35.1718114 77.129,35.1900114 77.24145,35.2160114 C77.3539,35.2420114 77.4527,35.2719114 77.53655,35.3050614 C77.6217,35.3382114 77.6828,35.3733114 77.7218,35.4103614 C77.76015,35.4474114 77.78875,35.4877114 77.80565,35.5319114 C77.82385,35.5767614 77.83945,35.6385114 77.85375,35.7165114 C77.86805,35.7938614 77.87845,35.9108614 77.8856,36.0655614 C77.8921,36.2215614 77.896,36.4321614 77.896,36.6986614" id="Fill-11" fill="#C80000"></path>
                <path d="M85.84225,39.6431614 C85.8637,38.8586114 85.71355,38.2411114 85.39375,37.7932614 C85.07395,37.3454114 84.5793,37.1218114 83.9111,37.1218114 C83.5731,37.1218114 83.2793,37.1874614 83.0297,37.3207114 C82.7801,37.4546114 82.5721,37.6346614 82.407,37.8602114 C82.24125,38.0857614 82.11515,38.3522614 82.02675,38.6597114 C81.93965,38.9678114 81.8883,39.2954114 81.874,39.6431614 L85.84225,39.6431614 Z M88.41365,40.4426614 C88.41365,40.7839114 88.3415,41.0354614 88.19785,41.1979614 C88.0542,41.3611114 87.8553,41.4430114 87.60245,41.4430114 L81.874,41.4430114 C81.874,41.8648614 81.92145,42.2483614 82.017,42.5928614 C82.1119,42.9373614 82.26335,43.2292114 82.47005,43.4703614 C82.67805,43.7108614 82.9452,43.8948114 83.27215,44.0202614 C83.59975,44.1457114 83.99235,44.2087614 84.4493,44.2087614 C84.91405,44.2087614 85.3216,44.1736614 85.6739,44.1034614 C86.02555,44.0332614 86.3291,43.9552614 86.58585,43.8707614 C86.8426,43.7856114 87.05515,43.7076114 87.22285,43.6367614 C87.39185,43.5665614 87.529,43.5314614 87.6343,43.5314614 C87.69735,43.5314614 87.75,43.5444614 87.7916,43.5704614 C87.8345,43.5964614 87.8696,43.6419614 87.8982,43.7095614 C87.9255,43.7752114 87.945,43.8707614 87.9554,43.9923114 C87.9658,44.1145114 87.97165,44.2685614 87.97165,44.4531614 C87.97165,44.6163114 87.96775,44.7554114 87.9606,44.8698114 C87.95345,44.9848614 87.94305,45.0830114 87.92875,45.1642614 C87.9151,45.2461614 87.8943,45.3137614 87.86635,45.3696614 C87.83775,45.4255614 87.8007,45.4788614 87.7552,45.5308614 C87.7097,45.5828614 87.5849,45.6530614 87.38145,45.7421114 C87.17735,45.8305114 86.918,45.9182614 86.60145,46.0034114 C86.28555,46.0885614 85.92285,46.1620114 85.51595,46.2257114 C85.1071,46.2881114 84.67095,46.3193114 84.20685,46.3193114 C83.369,46.3193114 82.6358,46.2088114 82.00595,45.9865114 C81.3761,45.7648614 80.85025,45.4268614 80.4284,44.9757614 C80.0059,44.5240114 79.6913,43.9533114 79.48395,43.2649614 C79.27595,42.5753114 79.1726,41.7686614 79.1726,40.8424114 C79.1726,39.9616614 79.28115,39.1667114 79.49955,38.4595114 C79.71795,37.7529614 80.03385,37.1530114 80.4492,36.6603114 C80.8639,36.1676114 81.3696,35.7919114 81.9637,35.5319114 C82.55845,35.2732114 83.2286,35.1438614 83.97415,35.1438614 C84.76195,35.1438614 85.43535,35.2654114 85.99565,35.5104614 C86.554,35.7542114 87.01225,36.0935114 87.3704,36.5270614 C87.7292,36.9606114 87.99245,37.4734614 88.1608,38.0656114 C88.3298,38.6577614 88.41365,39.3025614 88.41365,39.9987114 L88.41365,40.4426614 L88.41365,40.4426614 Z" id="Fill-12" fill="#C80000"></path>
                <path d="M100.01875,45.6868614 C100.01875,45.7609614 99.9973,45.8253114 99.95505,45.8805614 C99.91345,45.9358114 99.8426,45.9832614 99.74445,46.0196614 C99.64565,46.0567114 99.51045,46.0846614 99.3382,46.1035114 C99.16595,46.1217114 98.9521,46.1308114 98.6999,46.1308114 C98.4386,46.1308114 98.22215,46.1217114 98.05055,46.1035114 C97.87765,46.0846614 97.74245,46.0567114 97.64365,46.0196614 C97.5455,45.9832614 97.47465,45.9358114 97.4324,45.8805614 C97.3908,45.8253114 97.36935,45.7609614 97.36935,45.6868614 L97.36935,40.0312114 C97.36935,39.5502114 97.3362,39.1732114 97.26925,38.8989114 C97.2023,38.6246114 97.1061,38.3899614 96.97935,38.1930114 C96.8526,37.9967114 96.6888,37.8452614 96.48795,37.7373614 C96.28775,37.6307614 96.05375,37.5768114 95.78595,37.5768114 C95.4486,37.5768114 95.1067,37.7061614 94.76285,37.9661614 C94.4177,38.2248614 94.0589,38.6025114 93.68645,39.0984614 L93.68645,45.6868614 C93.68645,45.7609614 93.665,45.8253114 93.62275,45.8805614 C93.58115,45.9358114 93.50835,45.9832614 93.4063,46.0196614 C93.30425,46.0567114 93.16905,46.0846614 93.00005,46.1035114 C92.83105,46.1217114 92.61655,46.1308114 92.35655,46.1308114 C92.0959,46.1308114 91.88075,46.1217114 91.7124,46.1035114 C91.5434,46.0846614 91.4082,46.0567114 91.30615,46.0196614 C91.2041,45.9832614 91.13195,45.9358114 91.09035,45.8805614 C91.04745,45.8253114 91.02665,45.7609614 91.02665,45.6868614 L91.02665,35.7769614 C91.02665,35.7028614 91.0442,35.6385114 91.0793,35.5832614 C91.1144,35.5273614 91.17745,35.4805614 91.2691,35.4435114 C91.36075,35.4064614 91.4784,35.3785114 91.62335,35.3609614 C91.767,35.3414614 91.94835,35.3330114 92.16675,35.3330114 C92.39165,35.3330114 92.5782,35.3414614 92.72575,35.3609614 C92.87395,35.3785114 92.98835,35.4064614 93.06895,35.4435114 C93.14955,35.4805614 93.2074,35.5273614 93.24315,35.5832614 C93.27825,35.6385114 93.29515,35.7028614 93.29515,35.7769614 L93.29515,36.9209614 C93.81645,36.3288114 94.34555,35.8842114 94.8844,35.5878114 C95.4226,35.2920614 95.9829,35.1438614 96.56725,35.1438614 C97.20815,35.1438614 97.74765,35.2550114 98.1877,35.4766614 C98.6271,35.6989614 98.98265,36.0005614 99.25305,36.3827614 C99.5241,36.7636614 99.7191,37.2102114 99.83935,37.7211114 C99.95895,38.2326614 100.01875,38.8469114 100.01875,39.5658114 L100.01875,45.6868614" id="Fill-13" fill="#C80000"></path>
                <path d="M118.03415,45.6868614 C118.03415,45.7609614 118.0127,45.8253114 117.97045,45.8805614 C117.9282,45.9358114 117.85735,45.9832614 117.7592,46.0196614 C117.66105,46.0567114 117.5278,46.0846614 117.3588,46.1035114 C117.1898,46.1217114 116.97465,46.1308114 116.71465,46.1308114 C116.44685,46.1308114 116.22845,46.1217114 116.0601,46.1035114 C115.8911,46.0846614 115.75525,46.0567114 115.65385,46.0196614 C115.5518,45.9832614 115.48095,45.9358114 115.44325,45.8805614 C115.4036,45.8253114 115.38475,45.7609614 115.38475,45.6868614 L115.38475,39.8095614 C115.38475,39.4767614 115.35485,39.1732114 115.29505,38.8989114 C115.2346,38.6246114 115.1436,38.3899614 115.0201,38.1930114 C114.89725,37.9967114 114.7419,37.8452614 114.556,37.7373614 C114.36945,37.6307614 114.14585,37.5768114 113.88585,37.5768114 C113.5693,37.5768114 113.2495,37.7061614 112.92515,37.9661614 C112.60145,38.2248614 112.2498,38.6025114 111.8702,39.0984614 L111.8702,45.6868614 C111.8702,45.7609614 111.84875,45.8253114 111.80715,45.8805614 C111.7649,45.9358114 111.69275,45.9832614 111.5907,46.0196614 C111.48865,46.0567114 111.35345,46.0846614 111.18445,46.1035114 C111.01545,46.1217114 110.8042,46.1308114 110.5507,46.1308114 C110.2907,46.1308114 110.0762,46.1217114 109.9072,46.1035114 C109.7382,46.0846614 109.603,46.0567114 109.50095,46.0196614 C109.3989,45.9832614 109.3261,45.9358114 109.2845,45.8805614 C109.24225,45.8253114 109.2208,45.7609614 109.2208,45.6868614 L109.2208,39.8095614 C109.2208,39.4767614 109.1909,39.1732114 109.13175,38.8989114 C109.0713,38.6246114 108.98225,38.3899614 108.862,38.1930114 C108.7424,37.9967114 108.5877,37.8452614 108.39855,37.7373614 C108.2081,37.6307614 107.98645,37.5768114 107.73295,37.5768114 C107.40925,37.5768114 107.08555,37.7061614 106.76185,37.9661614 C106.4388,38.2248614 106.08975,38.6025114 105.71795,39.0984614 L105.71795,45.6868614 C105.71795,45.7609614 105.69585,45.8253114 105.65425,45.8805614 C105.612,45.9358114 105.53985,45.9832614 105.43715,46.0196614 C105.33575,46.0567114 105.1999,46.0846614 105.0309,46.1035114 C104.8619,46.1217114 104.6474,46.1308114 104.3874,46.1308114 C104.12675,46.1308114 103.91225,46.1217114 103.74325,46.1035114 C103.5749,46.0846614 103.43905,46.0567114 103.337,46.0196614 C103.23495,45.9832614 103.16345,45.9358114 103.12055,45.8805614 C103.0783,45.8253114 103.05815,45.7609614 103.05815,45.6868614 L103.05815,35.7769614 C103.05815,35.7028614 103.07505,35.6385114 103.11015,35.5832614 C103.1459,35.5273614 103.20895,35.4805614 103.3006,35.4435114 C103.3916,35.4064614 103.5099,35.3785114 103.6542,35.3609614 C103.79785,35.3414614 103.97985,35.3330114 104.1976,35.3330114 C104.4225,35.3330114 104.6097,35.3414614 104.7566,35.3609614 C104.9048,35.3785114 105.01855,35.4064614 105.09915,35.4435114 C105.1804,35.4805614 105.2389,35.5273614 105.274,35.5832614 C105.3091,35.6385114 105.32665,35.7028614 105.32665,35.7769614 L105.32665,36.9209614 C105.8473,36.3288114 106.36665,35.8842114 106.88405,35.5878114 C107.40015,35.2920614 107.94095,35.1438614 108.50385,35.1438614 C108.88995,35.1438614 109.239,35.1867614 109.5484,35.2719114 C109.85845,35.3570614 110.13405,35.4786114 110.37715,35.6385114 C110.62025,35.7977614 110.8289,35.9882114 111.0044,36.2098614 C111.18055,36.4321614 111.3281,36.6804614 111.4477,36.9541114 C111.7298,36.6362614 112.0054,36.3626114 112.27645,36.1325114 C112.54685,35.9030614 112.8153,35.7165114 113.0792,35.5715614 C113.34245,35.4266114 113.6057,35.3200114 113.87025,35.2491614 C114.13415,35.1796114 114.40325,35.1438614 114.67755,35.1438614 C115.3035,35.1438614 115.8313,35.2550114 116.2603,35.4766614 C116.6893,35.6989614 117.0364,36.0005614 117.3003,36.3827614 C117.5642,36.7636614 117.75205,37.2102114 117.86515,37.7211114 C117.97695,38.2326614 118.03415,38.7728114 118.03415,39.3435114 L118.03415,45.6868614" id="Fill-14" fill="#C80000"></path>
                <path d="M127.1946,39.6431614 C127.2154,38.8586114 127.06525,38.2411114 126.74545,37.7932614 C126.42565,37.3454114 125.931,37.1218114 125.2628,37.1218114 C124.9248,37.1218114 124.631,37.1874614 124.3814,37.3207114 C124.1318,37.4546114 123.9238,37.6346614 123.7587,37.8602114 C123.5936,38.0857614 123.46685,38.3522614 123.37845,38.6597114 C123.29135,38.9678114 123.24065,39.2954114 123.2257,39.6431614 L127.1946,39.6431614 Z M129.7699,40.4426614 C129.7699,40.7839114 129.6971,41.0354614 129.55345,41.1979614 C129.40915,41.3611114 129.2096,41.4430114 128.9574,41.4430114 L123.2257,41.4430114 C123.2257,41.8648614 123.27315,42.2483614 123.3687,42.5928614 C123.4636,42.9373614 123.61505,43.2292114 123.82175,43.4703614 C124.02975,43.7108614 124.29755,43.8948114 124.6245,44.0202614 C124.95145,44.1457114 125.34405,44.2087614 125.801,44.2087614 C126.26575,44.2087614 126.6733,44.1736614 127.0256,44.1034614 C127.37725,44.0332614 127.68145,43.9552614 127.9382,43.8707614 C128.1956,43.7856114 128.40815,43.7076114 128.57715,43.6367614 C128.7455,43.5665614 128.88265,43.5314614 128.9886,43.5314614 C129.05165,43.5314614 129.1043,43.5444614 129.14655,43.5704614 C129.1888,43.5964614 129.2239,43.6419614 129.2525,43.7095614 C129.28045,43.7752114 129.29995,43.8707614 129.3097,43.9923114 C129.32075,44.1145114 129.3266,44.2685614 129.3266,44.4531614 C129.3266,44.6163114 129.3227,44.7554114 129.3149,44.8698114 C129.30905,44.9848614 129.298,45.0830114 129.2837,45.1642614 C129.2694,45.2461614 129.2486,45.3137614 129.22065,45.3696614 C129.19205,45.4255614 129.155,45.4788614 129.1095,45.5308614 C129.064,45.5828614 128.9392,45.6530614 128.7351,45.7421114 C128.53035,45.8305114 128.27035,45.9182614 127.95445,46.0034114 C127.63725,46.0885614 127.2752,46.1620114 126.86765,46.2257114 C126.4588,46.2881114 126.02265,46.3193114 125.55855,46.3193114 C124.7207,46.3193114 123.9875,46.2088114 123.35765,45.9865114 C122.72845,45.7648614 122.20195,45.4268614 121.78075,44.9757614 C121.3576,44.5240114 121.043,43.9533114 120.83565,43.2649614 C120.62765,42.5753114 120.5243,41.7686614 120.5243,40.8424114 C120.5243,39.9616614 120.63285,39.1667114 120.85125,38.4595114 C121.06965,37.7529614 121.38555,37.1530114 121.8009,36.6603114 C122.2156,36.1676114 122.7213,35.7919114 123.3154,35.5319114 C123.91015,35.2732114 124.5803,35.1438614 125.3265,35.1438614 C126.11365,35.1438614 126.7877,35.2654114 127.34735,35.5104614 C127.90635,35.7542114 128.36525,36.0935114 128.7247,36.5270614 C129.0835,36.9606114 129.34675,37.4734614 129.51575,38.0656114 C129.68475,38.6577614 129.7699,39.3025614 129.7699,39.9987114 L129.7699,40.4426614 L129.7699,40.4426614 Z" id="Fill-15" fill="#C80000"></path>
                <path d="M139.0142,42.8866614 C139.0142,43.4502114 138.9141,43.9461614 138.71325,44.3758114 C138.51305,44.8048114 138.22965,45.1642614 137.8637,45.4535114 C137.4971,45.7421114 137.06485,45.9592114 136.56565,46.1035114 C136.0658,46.2478114 135.52435,46.3193114 134.94065,46.3193114 C134.58835,46.3193114 134.2523,46.2920114 133.9325,46.2367614 C133.61205,46.1808614 133.3254,46.1100114 133.0719,46.0248614 C132.81905,45.9397114 132.6078,45.8532614 132.4388,45.7648614 C132.2698,45.6758114 132.14695,45.5919614 132.0696,45.5146114 C131.9916,45.4366114 131.93245,45.3137614 131.88955,45.1473614 C131.84795,44.9816114 131.8265,44.7352614 131.8265,44.4089614 C131.8265,44.1944614 131.83365,44.0215614 131.84795,43.8922114 C131.8616,43.7628614 131.88305,43.6588614 131.911,43.5808614 C131.93895,43.5035114 131.9747,43.4515114 132.01695,43.4261614 C132.05855,43.3995114 132.11185,43.3865114 132.17555,43.3865114 C132.25225,43.3865114 132.3673,43.4333114 132.5181,43.5256114 C132.6689,43.6185614 132.8574,43.7199614 133.08295,43.8311114 C133.30785,43.9422614 133.56915,44.0456114 133.8688,44.1424614 C134.1678,44.2386614 134.50775,44.2867614 134.88735,44.2867614 C135.12655,44.2867614 135.3391,44.2607614 135.52565,44.2087614 C135.7122,44.1574114 135.87405,44.0833114 136.0112,43.9864614 C136.149,43.8909114 136.2517,43.7680614 136.3232,43.6205114 C136.39275,43.4716614 136.4285,43.3020114 136.4285,43.1089614 C136.4285,42.8866614 136.3635,42.6962114 136.23285,42.5376114 C136.10285,42.3777114 135.9306,42.2392614 135.7161,42.1203114 C135.5016,42.0020114 135.2585,41.8915114 134.98745,41.7875114 C134.71705,41.6828614 134.43885,41.5691114 134.15415,41.4430114 C133.8688,41.3169114 133.5906,41.1726114 133.3202,41.0094614 C133.0485,40.8463114 132.80605,40.6474114 132.59155,40.4095114 C132.37705,40.1722614 132.2048,39.8875614 132.0748,39.5541114 C131.94415,39.2206614 131.8798,38.8209114 131.8798,38.3542114 C131.8798,37.8810114 131.9669,37.4455114 132.1437,37.0490114 C132.31855,36.6531614 132.5727,36.3145114 132.9029,36.0324114 C133.2344,35.7509614 133.63675,35.5319114 134.11125,35.3772114 C134.5864,35.2212114 135.1194,35.1438614 135.7109,35.1438614 C136.006,35.1438614 136.29265,35.1659614 136.5702,35.2101614 C136.8484,35.2550114 137.09995,35.3102614 137.3255,35.3772114 C137.5504,35.4435114 137.7402,35.5156614 137.8949,35.5936614 C138.0496,35.6716614 138.16075,35.7379614 138.22705,35.7938614 C138.29465,35.8497614 138.34145,35.9050114 138.37005,35.9602614 C138.39865,36.0161614 138.4188,36.0824614 138.43375,36.1604614 C138.4474,36.2378114 138.45975,36.3346614 138.47015,36.4490614 C138.4812,36.5641114 138.4864,36.7064614 138.4864,36.8767614 C138.4864,37.0776114 138.4812,37.2394614 138.47015,37.3655614 C138.45975,37.4916614 138.44155,37.5911114 138.4175,37.6658614 C138.3928,37.7399614 138.359,37.7893614 138.3174,37.8153614 C138.27515,37.8413614 138.22575,37.8543614 138.1692,37.8543614 C138.1068,37.8543614 138.00735,37.8153614 137.8741,37.7373614 C137.7402,37.6600114 137.57315,37.5768114 137.37295,37.4877614 C137.1721,37.3993614 136.94005,37.3161614 136.67615,37.2381614 C136.41225,37.1595114 136.1113,37.1218114 135.77395,37.1218114 C135.53475,37.1218114 135.32675,37.1471614 135.15125,37.1991614 C134.9751,37.2511614 134.83145,37.3246114 134.71835,37.4214614 C134.6059,37.5176614 134.5214,37.6307614 134.4655,37.7601114 C134.4083,37.8894614 134.38035,38.0279114 134.38035,38.1767614 C134.38035,38.4062114 134.44795,38.5986114 134.5812,38.7546114 C134.71445,38.9099614 134.8906,39.0471114 135.109,39.1654114 C135.32675,39.2837114 135.57505,39.3955114 135.85325,39.4982114 C136.13145,39.6022114 136.41225,39.7153114 136.6976,39.8375114 C136.9823,39.9597114 137.26375,40.1027114 137.54195,40.2652114 C137.8195,40.4283614 138.06715,40.6279114 138.28555,40.8658114 C138.50395,41.1024114 138.6801,41.3851614 138.814,41.7147114 C138.94725,42.0449114 139.0142,42.4355614 139.0142,42.8866614" id="Fill-16" fill="#C80000"></path>
                <path d="M148.0687,42.8866614 C148.0687,43.4502114 147.9686,43.9461614 147.76775,44.3758114 C147.5669,44.8048114 147.28415,45.1642614 146.9182,45.4535114 C146.5529,45.7421114 146.12,45.9592114 145.62015,46.1035114 C145.12095,46.2478114 144.57885,46.3193114 143.9945,46.3193114 C143.64285,46.3193114 143.30745,46.2920114 142.987,46.2367614 C142.66655,46.1808614 142.3799,46.1100114 142.12705,46.0248614 C141.87355,45.9397114 141.6623,45.8532614 141.49395,45.7648614 C141.32495,45.6758114 141.20145,45.5919614 141.1241,45.5146114 C141.04675,45.4366114 140.98695,45.3137614 140.94535,45.1473614 C140.90245,44.9816114 140.88165,44.7352614 140.88165,44.4089614 C140.88165,44.1944614 140.88815,44.0215614 140.90245,43.8922114 C140.91675,43.7628614 140.93755,43.6588614 140.9655,43.5808614 C140.9941,43.5035114 141.0292,43.4515114 141.07145,43.4261614 C141.11435,43.3995114 141.16635,43.3865114 141.2294,43.3865114 C141.3074,43.3865114 141.42115,43.4333114 141.57325,43.5256114 C141.72405,43.6185614 141.91255,43.7199614 142.13745,43.8311114 C142.363,43.9422614 142.62495,44.0456114 142.92395,44.1424614 C143.22295,44.2386614 143.56225,44.2867614 143.9425,44.2867614 C144.18105,44.2867614 144.3949,44.2607614 144.58145,44.2087614 C144.76735,44.1574114 144.9292,44.0833114 145.06635,43.9864614 C145.2035,43.8909114 145.3075,43.7680614 145.37705,43.6205114 C145.44855,43.4716614 145.483,43.3020114 145.483,43.1089614 C145.483,42.8866614 145.418,42.6962114 145.28865,42.5376114 C145.15735,42.3777114 144.9851,42.2392614 144.7706,42.1203114 C144.5561,42.0020114 144.31365,41.8915114 144.04325,41.7875114 C143.77155,41.6828614 143.494,41.5691114 143.20865,41.4430114 C142.92395,41.3169114 142.64575,41.1726114 142.3747,41.0094614 C142.1043,40.8463114 141.8612,40.6474114 141.6467,40.4095114 C141.4322,40.1722614 141.25995,39.8875614 141.1293,39.5541114 C140.9993,39.2206614 140.9343,38.8209114 140.9343,38.3542114 C140.9343,37.8810114 141.0227,37.4455114 141.1982,37.0490114 C141.37435,36.6531614 141.6272,36.3145114 141.95805,36.0324114 C142.28825,35.7509614 142.69125,35.5319114 143.16705,35.3772114 C143.64155,35.2212114 144.17455,35.1438614 144.7654,35.1438614 C145.06115,35.1438614 145.3478,35.1659614 145.626,35.2101614 C145.90355,35.2550114 146.1551,35.3102614 146.38,35.3772114 C146.6049,35.4435114 146.79535,35.5156614 146.95005,35.5936614 C147.10475,35.6716614 147.21525,35.7379614 147.28285,35.7938614 C147.34915,35.8497614 147.39725,35.9050114 147.4252,35.9602614 C147.45315,36.0161614 147.4746,36.0824614 147.48825,36.1604614 C147.50255,36.2378114 147.5149,36.3346614 147.5253,36.4490614 C147.5357,36.5641114 147.5409,36.7064614 147.5409,36.8767614 C147.5409,37.0776114 147.5357,37.2394614 147.5253,37.3655614 C147.5149,37.4916614 147.49735,37.5911114 147.47265,37.6658614 C147.44795,37.7399614 147.4148,37.7893614 147.37255,37.8153614 C147.32965,37.8413614 147.2809,37.8543614 147.22435,37.8543614 C147.16065,37.8543614 147.0625,37.8153614 146.9286,37.7373614 C146.79535,37.6600114 146.6283,37.5768114 146.42745,37.4877614 C146.22725,37.3993614 145.9952,37.3161614 145.7313,37.2381614 C145.4674,37.1595114 145.16645,37.1218114 144.82845,37.1218114 C144.58925,37.1218114 144.3819,37.1471614 144.20575,37.1991614 C144.03025,37.2511614 143.8853,37.3246114 143.7735,37.4214614 C143.66105,37.5176614 143.57655,37.6307614 143.52,37.7601114 C143.4641,37.8894614 143.43615,38.0279114 143.43615,38.1767614 C143.43615,38.4062114 143.5018,38.5986114 143.63635,38.7546114 C143.77025,38.9099614 143.94575,39.0471114 144.1635,39.1654114 C144.3819,39.2837114 144.62955,39.3955114 144.90775,39.4982114 C145.1853,39.6022114 145.4674,39.7153114 145.7521,39.8375114 C146.03745,39.9597114 146.31825,40.1027114 146.59645,40.2652114 C146.874,40.4283614 147.12295,40.6279114 147.3407,40.8658114 C147.55845,41.1024114 147.7346,41.3851614 147.86785,41.7147114 C148.00175,42.0449114 148.0687,42.4355614 148.0687,42.8866614" id="Fill-17" fill="#C80000"></path>
                <path d="M156.6175,39.6431614 C156.63765,38.8586114 156.4888,38.2411114 156.16835,37.7932614 C155.84855,37.3454114 155.35455,37.1218114 154.6857,37.1218114 C154.3477,37.1218114 154.05455,37.1874614 153.8043,37.3207114 C153.5547,37.4546114 153.34735,37.6346614 153.18225,37.8602114 C153.0165,38.0857614 152.8904,38.3522614 152.802,38.6597114 C152.7136,38.9678114 152.6629,39.2954114 152.64925,39.6431614 L156.6175,39.6431614 Z M159.19215,40.4426614 C159.19215,40.7839114 159.12,41.0354614 158.97635,41.1979614 C158.8314,41.3611114 158.63315,41.4430114 158.37965,41.4430114 L152.64925,41.4430114 C152.64925,41.8648614 152.69605,42.2483614 152.79095,42.5928614 C152.8865,42.9373614 153.0373,43.2292114 153.2453,43.4703614 C153.45265,43.7108614 153.72045,43.8948114 154.04675,44.0202614 C154.37435,44.1457114 154.76695,44.2087614 155.2239,44.2087614 C155.68865,44.2087614 156.0962,44.1736614 156.4485,44.1034614 C156.80015,44.0332614 157.1037,43.9552614 157.36175,43.8707614 C157.61785,43.7856114 157.83105,43.7076114 158.00005,43.6367614 C158.16905,43.5665614 158.3062,43.5314614 158.4115,43.5314614 C158.4752,43.5314614 158.5272,43.5444614 158.56945,43.5704614 C158.61235,43.5964614 158.6468,43.6419614 158.6754,43.7095614 C158.70335,43.7752114 158.7222,43.8707614 158.73325,43.9923114 C158.7443,44.1145114 158.7495,44.2685614 158.7495,44.4531614 C158.7495,44.6163114 158.7456,44.7554114 158.73845,44.8698114 C158.7313,44.9848614 158.72155,45.0830114 158.70725,45.1642614 C158.69295,45.2461614 158.6715,45.3137614 158.64355,45.3696614 C158.61495,45.4255614 158.57855,45.4788614 158.5324,45.5308614 C158.4869,45.5828614 158.3621,45.6530614 158.15735,45.7421114 C157.9539,45.8305114 157.69325,45.9182614 157.3767,46.0034114 C157.0608,46.0885614 156.69745,46.1620114 156.2899,46.2257114 C155.8817,46.2881114 155.44555,46.3193114 154.98145,46.3193114 C154.14425,46.3193114 153.41105,46.2088114 152.7812,45.9865114 C152.15135,45.7648614 151.6255,45.4268614 151.203,44.9757614 C150.78115,44.5240114 150.46525,43.9533114 150.25855,43.2649614 C150.0512,42.5753114 149.9472,41.7686614 149.9472,40.8424114 C149.9472,39.9616614 150.05575,39.1667114 150.27415,38.4595114 C150.4919,37.7529614 150.8091,37.1530114 151.2238,36.6603114 C151.63915,36.1676114 152.14355,35.7919114 152.7383,35.5319114 C153.33305,35.2732114 154.00385,35.1438614 154.74875,35.1438614 C155.5372,35.1438614 156.2106,35.2654114 156.77025,35.5104614 C157.3299,35.7542114 157.7888,36.0935114 158.1476,36.5270614 C158.5064,36.9606114 158.7703,37.4734614 158.93865,38.0656114 C159.10765,38.6577614 159.19215,39.3025614 159.19215,39.9987114 L159.19215,40.4426614 L159.19215,40.4426614 Z" id="Fill-18" fill="#C80000"></path>
                <path d="M162.56695,33.2848614 C162.56695,33.2348114 162.5598,33.1873614 162.54615,33.1425114 C162.5325,33.0963614 162.5065,33.0573614 162.4675,33.0229114 C162.4298,32.9884614 162.37845,32.9624614 162.31475,32.9449114 C162.25105,32.9267114 162.17175,32.9176114 162.07685,32.9176114 L161.7629,32.9176114 L161.7629,33.6800614 L162.06255,33.6800614 C162.25365,33.6800614 162.38495,33.6436614 162.45775,33.5715114 C162.53055,33.4987114 162.56695,33.4031614 162.56695,33.2848614 Z M163.41065,35.1718114 C163.41065,35.1893614 163.4074,35.2062614 163.4009,35.2225114 C163.3944,35.2381114 163.3775,35.2498114 163.3502,35.2569614 C163.3229,35.2634614 163.2839,35.2693114 163.23385,35.2738614 C163.18445,35.2784114 163.11555,35.2803614 163.02975,35.2803614 C162.9524,35.2803614 162.89065,35.2784114 162.84255,35.2738614 C162.79445,35.2693114 162.75675,35.2608614 162.72685,35.2498114 C162.6976,35.2381114 162.67485,35.2225114 162.6586,35.2023614 C162.643,35.1815614 162.63,35.1529614 162.62155,35.1172114 L162.47855,34.6472614 C162.42395,34.4789114 162.35895,34.3625614 162.2842,34.2962614 C162.20945,34.2306114 162.097,34.1981114 161.94685,34.1981114 L161.7629,34.1981114 L161.7629,35.1516614 C161.7629,35.2010614 161.74405,35.2348614 161.70505,35.2530614 C161.6667,35.2712614 161.577,35.2803614 161.43595,35.2803614 C161.2949,35.2803614 161.2026,35.2712614 161.1571,35.2530614 C161.1116,35.2348614 161.08885,35.2010614 161.08885,35.1516614 L161.08885,32.7063614 C161.08885,32.6069114 161.11355,32.5276114 161.1636,32.4710614 C161.21365,32.4151614 161.28905,32.3865614 161.3885,32.3865614 L162.17175,32.3865614 C162.3531,32.3865614 162.51365,32.4021614 162.65145,32.4340114 C162.7899,32.4658614 162.9082,32.5159114 163.0057,32.5835114 C163.10385,32.6517614 163.1773,32.7369114 163.22735,32.8389614 C163.27675,32.9410114 163.3021,33.0632114 163.3021,33.2029614 C163.3021,33.4213614 163.2436,33.5903614 163.1253,33.7106114 C163.007,33.8308614 162.84775,33.9160114 162.64885,33.9660614 C162.7574,34.0024614 162.85945,34.0642114 162.955,34.1493614 C163.05055,34.2358114 163.1318,34.3658114 163.20005,34.5380614 L163.3632,34.9742114 C163.39505,35.0782114 163.41065,35.1445114 163.41065,35.1718114 Z M164.2147,33.9251114 C164.2147,33.6033614 164.164,33.3102114 164.0613,33.0463114 C163.95925,32.7837114 163.8169,32.5575114 163.63555,32.3690114 C163.4542,32.1805114 163.2384,32.0368614 162.9888,31.9367614 C162.7392,31.8366614 162.4688,31.7872614 162.17825,31.7872614 C161.86495,31.7872614 161.58285,31.8418614 161.33065,31.9504114 C161.07845,32.0596114 160.862,32.2091114 160.68,32.3995614 C160.49865,32.5906614 160.3589,32.8116614 160.2614,33.0638614 C160.1639,33.3154114 160.11515,33.5845114 160.11515,33.8711614 C160.11515,34.1883614 160.16585,34.4789114 160.2679,34.7428114 C160.3706,35.0060614 160.5123,35.2322614 160.6943,35.4201114 C160.87565,35.6086114 161.0908,35.7535614 161.34105,35.8556114 C161.59065,35.9583114 161.86105,36.0090114 162.1516,36.0090114 C162.46425,36.0090114 162.7483,35.9537614 163.00245,35.8419614 C163.2566,35.7308114 163.4737,35.5813114 163.65245,35.3928114 C163.8325,35.2049614 163.97095,34.9846114 164.06845,34.7324114 C164.16595,34.4802114 164.2147,34.2111114 164.2147,33.9251114 Z M164.82765,33.8841614 C164.82765,34.2572614 164.75875,34.6056614 164.6203,34.9300114 C164.4812,35.2543614 164.29205,35.5358114 164.05155,35.7743614 C163.81105,36.0129114 163.527,36.2014114 163.20005,36.3398614 C162.8731,36.4783114 162.5234,36.5472114 162.1516,36.5472114 C161.7655,36.5472114 161.40995,36.4796114 161.0856,36.3463614 C160.7606,36.2118114 160.48175,36.0285114 160.24775,35.7945114 C160.0144,35.5605114 159.83175,35.2829614 159.69915,34.9605614 C159.56785,34.6375114 159.5022,34.2839114 159.5022,33.8978114 C159.5022,33.5260114 159.5711,33.1782614 159.70955,32.8558614 C159.84865,32.5334614 160.0378,32.2539614 160.2783,32.0147614 C160.5188,31.7768614 160.8022,31.5896614 161.12655,31.4531614 C161.4509,31.3166614 161.8019,31.2490614 162.17825,31.2490614 C162.56435,31.2490614 162.9199,31.3147114 163.24425,31.4460114 C163.56925,31.5779614 163.8481,31.7612614 164.0821,31.9946114 C164.31545,32.2279614 164.4981,32.5061614 164.63005,32.8285614 C164.762,33.1509614 164.82765,33.5026114 164.82765,33.8841614 L164.82765,33.8841614 Z" id="Fill-19" fill="#C80000"></path>
            </g>
        </g>
    </g>
</svg>
